<?xml version="1.0" encoding="UTF-8"?>
<svg xmlns="http://www.w3.org/2000/svg" width="226.5pt" height="226.5pt" viewBox="119.8 372.85 226.85 226.85">
  <title>보건소 로고 청록 - 원형 내부 흰색 채움</title>
  <circle cx="233.214" cy="486.269" r="103.207" fill="#ffffff"/>
  <path fill-rule="nonzero" fill="#00a4b3" d="M 305.820312 412.925781 C 287.175781 394.464844 261.527344 383.058594 233.214844 383.058594 C 185.535156 383.058594 145.414062 415.394531 133.566406 459.328125 C 150.121094 442.933594 179.9375 427.246094 215.792969 417.804688 C 250.605469 408.636719 283.367188 407.394531 305.820312 412.925781 "/>
  <path fill-rule="nonzero" fill="#00a4b3" d="M 330.480469 451.691406 C 323.355469 465.375 309.277344 479.796875 290.273438 492.816406 L 290.273438 510.582031 L 253.253906 510.582031 L 253.253906 547.601562 L 215.398438 547.601562 L 215.398438 516.425781 C 222.140625 514.769531 228.898438 512.808594 235.433594 510.582031 C 238.375 509.582031 241.273438 508.523438 244.105469 507.417969 C 247.21875 506.199219 250.265625 504.925781 253.253906 503.601562 C 267.175781 497.441406 279.683594 490.207031 290.273438 482.445312 C 301.464844 474.242188 310.488281 465.449219 316.785156 456.703125 C 319.863281 452.429688 322.289062 448.175781 323.984375 444 C 324.058594 443.347656 324.097656 442.683594 324.097656 442.011719 C 324.097656 438.996094 323.328125 436.140625 321.964844 433.570312 C 321.554688 432.882812 321.136719 432.199219 320.714844 431.523438 C 319.136719 429.277344 317.066406 427.320312 314.636719 425.765625 C 310.382812 424.140625 305.585938 422.832031 300.324219 421.855469 C 278.1875 417.746094 247.863281 419.464844 215.792969 427.910156 C 185.367188 435.921875 159.304688 448.433594 141.996094 462.058594 C 138.644531 464.691406 135.625 467.367188 132.964844 470.0625 C 131.734375 472.046875 130.871094 474.234375 130.464844 476.550781 C 130.359375 477.667969 130.273438 478.789062 130.207031 479.917969 C 130.320312 486.832031 134.4375 492.90625 140.640625 496.464844 C 145.929688 497.75 152.226562 498.652344 159.164062 499.164062 C 165.175781 499.613281 171.652344 499.769531 178.378906 499.628906 L 178.378906 472.726562 L 215.398438 472.726562 L 215.398438 435.707031 L 253.253906 435.707031 L 253.253906 472.726562 L 290.273438 472.726562 C 279.734375 479.429688 267.222656 489.65625 253.253906 494.824219 C 242.488281 498.808594 230.863281 502.21875 218.617188 504.878906 C 217.535156 505.113281 216.472656 505.320312 215.398438 505.542969 C 202.695312 508.167969 190.796875 509.847656 179.65625 510.582031 C 162.378906 511.726562 145.992188 510.601562 132.164062 507.289062 L 132.160156 507.292969 C 141.871094 554.210938 183.421875 589.476562 233.214844 589.476562 C 290.214844 589.476562 336.421875 543.269531 336.421875 486.269531 C 336.421875 474.140625 334.324219 462.5 330.480469 451.691406 "/>
</svg>
